<?xml version="1.0" encoding="utf-8"?>
<!-- Uploaded to: SVG Repo, www.svgrepo.com, Generator: SVG Repo Mixer Tools -->
<svg width="800px" height="800px" viewBox="0 -12.25 75.314 75.314" xmlns="http://www.w3.org/2000/svg">
  <g id="Group_31" data-name="Group 31" transform="translate(-102.771 -329.186)">
    <g id="Group_28" data-name="Group 28">
      <g id="Group_25" data-name="Group 25">
        <path id="Path_65" data-name="Path 65" d="M170.333,347.353a1.472,1.472,0,0,1-.426-.868,10.528,10.528,0,0,0-9.12-9.122,1.5,1.5,0,0,1,.384-2.979A13.528,13.528,0,0,1,172.886,346.1a1.5,1.5,0,0,1-2.553,1.252Z" fill="#ffc52f"/>
      </g>
      <g id="Group_26" data-name="Group 26">
        <path id="Path_66" data-name="Path 66" d="M175.521,346.547a1.5,1.5,0,0,1-.425-.858,15.751,15.751,0,0,0-13.513-13.513,1.5,1.5,0,1,1,.408-2.976,18.755,18.755,0,0,1,16.08,16.08,1.5,1.5,0,0,1-2.55,1.267Z" fill="#ffc52f"/>
      </g>
      <g id="Group_27" data-name="Group 27">
        <path id="Path_67" data-name="Path 67" d="M165.148,348.163a1.48,1.48,0,0,1-.43-.9,5.385,5.385,0,0,0-4.711-4.711,1.5,1.5,0,0,1,.326-2.987,8.31,8.31,0,0,1,7.369,7.373,1.5,1.5,0,0,1-2.554,1.223Z" fill="#ffc52f"/>
      </g>
    </g>
    <g id="Group_30" data-name="Group 30">
      <path id="Path_68" data-name="Path 68" d="M161.951,354.994a7.682,7.682,0,0,0-10.871-10.141,19.555,19.555,0,0,0-37.128,8.589c0,.5.037.983.074,1.47A12.579,12.579,0,0,0,115.349,380h44.727a12.573,12.573,0,0,0,1.875-25.006Z" fill="#dce2e9"/>
      <g id="Group_29" data-name="Group 29">
        <path id="Path_69" data-name="Path 69" d="M114.026,352.509c-.007-.089-.007-.177-.013-.265-.006.089-.01.179-.014.269Z" fill="#a9afbb"/>
        <path id="Path_70" data-name="Path 70" d="M160.076,377.6H115.349a12.577,12.577,0,0,1-12.519-11.4q-.059.6-.059,1.223A12.579,12.579,0,0,0,115.349,380h44.727a12.58,12.58,0,0,0,12.579-12.58c0-.41-.021-.815-.059-1.215A12.579,12.579,0,0,1,160.076,377.6Z" fill="#a9afbb"/>
      </g>
      <path id="Path_71" data-name="Path 71" d="M129.982,349.16c-4.343,4.345-9.744,5.986-12.063,3.666s-.678-7.721,3.666-12.064,9.746-5.986,12.064-3.666S134.327,344.816,129.982,349.16Z" fill="#ffffff"/>
      <path id="Path_72" data-name="Path 72" d="M114.355,364.52c-1.885,1.884-4.592,2.234-6.047.779s-1.106-4.162.78-6.047,4.593-2.233,6.046-.779S116.239,362.635,114.355,364.52Z" fill="#ffffff"/>
      <path id="Path_73" data-name="Path 73" d="M164.511,364.52c-1.885,1.884-4.592,2.234-6.047.779s-1.106-4.162.779-6.047,4.593-2.233,6.047-.779S166.4,362.635,164.511,364.52Z" fill="#ffffff"/>
      <path id="Path_74" data-name="Path 74" d="M156.7,352.2c-1.884,1.885-4.592,2.234-6.047.779s-1.1-4.162.78-6.046,4.592-2.234,6.047-.78S158.583,350.316,156.7,352.2Z" fill="#ffffff"/>
    </g>
  </g>
</svg>