<?xml version="1.0" encoding="iso-8859-1"?>
<!-- Uploaded to: SVG Repo, www.svgrepo.com, Generator: SVG Repo Mixer Tools -->
<svg version="1.1" id="Layer_1" xmlns="http://www.w3.org/2000/svg" xmlns:xlink="http://www.w3.org/1999/xlink" 
	 viewBox="0 0 512 512" xml:space="preserve">
<path d="M178.312,356.616C79.992,356.616,0,276.624,0,178.304S79.992,0,178.312,0s178.304,79.984,178.304,178.304
	S276.632,356.616,178.312,356.616z M178.312,16C88.816,16,16,88.816,16,178.304c0,89.496,72.816,162.312,162.312,162.312
	S340.616,267.8,340.616,178.304C340.616,88.816,267.808,16,178.312,16z"/>
<rect x="170.312" y="2.872" width="16" height="341.904"/>
<rect x="7.744" y="170.304" width="344.56" height="16"/>
<path d="M178.104,136.52c-89.352,0-124.968-74.24-126.44-77.408l14.496-6.768c1.312,2.784,33,68.168,111.944,68.168
	c79.24,0,110.752-66.72,111.056-67.392l14.544,6.672C302.264,62.936,267.496,136.52,178.104,136.52z"/>
<path d="M66.16,304.28l-14.496-6.768c1.472-3.168,37.088-77.408,126.44-77.408c89.392,0,124.168,73.576,125.6,76.712l-14.544,6.672
	c-1.264-2.736-32.144-67.384-111.056-67.384C99.16,236.104,67.472,301.496,66.16,304.28z"/>
<path d="M169.216,355.752c-3.384-3.096-82.768-76.904-82.768-177.448c0-100.68,81.184-171.76,84.648-174.736l10.448,12.12
	c-0.792,0.688-79.096,69.4-79.096,162.616c0,93.568,76.792,164.936,77.56,165.648L169.216,355.752z"/>
<path d="M187.4,355.752l-10.808-11.8c0.776-0.712,77.568-72.272,77.568-165.648c0-93.424-78.296-161.928-79.088-162.608
	l10.44-12.128c3.464,2.976,84.648,74.056,84.648,174.736C270.168,278.848,190.784,352.656,187.4,355.752z"/>
<path style="fill:#E50914;" d="M512,379.416v-46.792l-34.64-3.464c-3.176-14.416-8.872-27.856-16.568-39.912l22.072-26.976
	l-33.088-33.088l-26.952,22.056c-12.064-7.72-25.52-13.432-39.944-16.616l-3.456-34.568h-23.392h-0.192h-23.392l-3.456,34.56
	c-14.432,3.192-27.888,8.896-39.952,16.616l-26.944-22.048l-33.088,33.088l22.064,26.968c-7.696,12.064-13.4,25.504-16.576,39.928
	l-34.624,3.464v46.792l34.624,3.464c3.176,14.416,8.872,27.864,16.576,39.928l-22.064,26.968l33.088,33.088l26.944-22.04
	c12.072,7.72,25.528,13.432,39.96,16.624L332.448,512h23.392h0.192h23.392l3.456-34.568c14.424-3.192,27.88-8.904,39.952-16.624
	l26.952,22.048l33.088-33.088l-22.08-26.984c7.688-12.056,13.384-25.496,16.56-39.904L512,379.416z"/>
<circle style="fill:#D6D6D6;" cx="355.928" cy="356.024" r="44.256"/>
<circle cx="355.928" cy="356.024" r="80.64"/>
<circle style="fill:#FFFFFF;" cx="355.928" cy="356.024" r="32.568"/>
</svg>